<mxfile host="Electron" modified="2024-01-26T13:06:41.646Z" agent="Mozilla/5.0 (Windows NT 10.0; Win64; x64) AppleWebKit/537.36 (KHTML, like Gecko) draw.io/22.0.2 Chrome/114.0.5735.289 Electron/25.8.4 Safari/537.36" etag="-L_NERLw5j_uHKYTOYC0" version="22.0.2" type="device">
  <diagram name="Page-1" id="CWZUwF4GyPiMZs75Up97">
    <mxGraphModel dx="2368" dy="731" grid="1" gridSize="10" guides="1" tooltips="1" connect="1" arrows="1" fold="1" page="1" pageScale="1" pageWidth="850" pageHeight="1100" math="0" shadow="0">
      <root>
        <mxCell id="0" />
        <mxCell id="1" parent="0" />
        <mxCell id="Jw7tVjg1MiCgGyjcP3ik-1" value="Students" style="rounded=1;whiteSpace=wrap;html=1;" parent="1" vertex="1">
          <mxGeometry x="200" y="120" width="120" height="60" as="geometry" />
        </mxCell>
        <mxCell id="Jw7tVjg1MiCgGyjcP3ik-2" value="" style="endArrow=classic;html=1;rounded=0;exitX=0.25;exitY=0;exitDx=0;exitDy=0;" parent="1" source="Jw7tVjg1MiCgGyjcP3ik-1" target="Jw7tVjg1MiCgGyjcP3ik-3" edge="1">
          <mxGeometry width="50" height="50" relative="1" as="geometry">
            <mxPoint x="400" y="340" as="sourcePoint" />
            <mxPoint x="110" y="80" as="targetPoint" />
          </mxGeometry>
        </mxCell>
        <mxCell id="Jw7tVjg1MiCgGyjcP3ik-3" value="st_id" style="ellipse;whiteSpace=wrap;html=1;" parent="1" vertex="1">
          <mxGeometry x="110" y="40" width="100" height="40" as="geometry" />
        </mxCell>
        <mxCell id="Jw7tVjg1MiCgGyjcP3ik-4" value="" style="endArrow=classic;html=1;rounded=0;exitX=0.5;exitY=0;exitDx=0;exitDy=0;" parent="1" source="Jw7tVjg1MiCgGyjcP3ik-1" target="Jw7tVjg1MiCgGyjcP3ik-5" edge="1">
          <mxGeometry width="50" height="50" relative="1" as="geometry">
            <mxPoint x="390" y="90" as="sourcePoint" />
            <mxPoint x="270" y="50" as="targetPoint" />
          </mxGeometry>
        </mxCell>
        <mxCell id="Jw7tVjg1MiCgGyjcP3ik-5" value="st_fname" style="ellipse;whiteSpace=wrap;html=1;" parent="1" vertex="1">
          <mxGeometry x="190" width="90" height="50" as="geometry" />
        </mxCell>
        <mxCell id="Jw7tVjg1MiCgGyjcP3ik-6" value="" style="endArrow=classic;html=1;rounded=0;exitX=0.75;exitY=0;exitDx=0;exitDy=0;" parent="1" source="Jw7tVjg1MiCgGyjcP3ik-1" target="Jw7tVjg1MiCgGyjcP3ik-7" edge="1">
          <mxGeometry width="50" height="50" relative="1" as="geometry">
            <mxPoint x="560" y="90" as="sourcePoint" />
            <mxPoint x="440" y="50" as="targetPoint" />
          </mxGeometry>
        </mxCell>
        <mxCell id="Jw7tVjg1MiCgGyjcP3ik-7" value="st_lname" style="ellipse;whiteSpace=wrap;html=1;" parent="1" vertex="1">
          <mxGeometry x="280" width="100" height="50" as="geometry" />
        </mxCell>
        <mxCell id="Jw7tVjg1MiCgGyjcP3ik-8" value="" style="endArrow=classic;html=1;rounded=0;exitX=0.75;exitY=0;exitDx=0;exitDy=0;" parent="1" source="Jw7tVjg1MiCgGyjcP3ik-1" target="Jw7tVjg1MiCgGyjcP3ik-9" edge="1">
          <mxGeometry width="50" height="50" relative="1" as="geometry">
            <mxPoint x="580" y="190" as="sourcePoint" />
            <mxPoint x="460" y="150" as="targetPoint" />
          </mxGeometry>
        </mxCell>
        <mxCell id="Jw7tVjg1MiCgGyjcP3ik-9" value="dob" style="ellipse;whiteSpace=wrap;html=1;" parent="1" vertex="1">
          <mxGeometry x="320" y="50" width="100" height="50" as="geometry" />
        </mxCell>
        <mxCell id="Jw7tVjg1MiCgGyjcP3ik-12" value="" style="endArrow=classic;html=1;rounded=0;exitX=1;exitY=0;exitDx=0;exitDy=0;" parent="1" source="Jw7tVjg1MiCgGyjcP3ik-1" target="Jw7tVjg1MiCgGyjcP3ik-13" edge="1">
          <mxGeometry width="50" height="50" relative="1" as="geometry">
            <mxPoint x="220" y="160" as="sourcePoint" />
            <mxPoint x="100" y="120" as="targetPoint" />
          </mxGeometry>
        </mxCell>
        <mxCell id="Jw7tVjg1MiCgGyjcP3ik-13" value="address" style="ellipse;whiteSpace=wrap;html=1;" parent="1" vertex="1">
          <mxGeometry x="340" y="100" width="100" height="50" as="geometry" />
        </mxCell>
        <mxCell id="Jw7tVjg1MiCgGyjcP3ik-25" value="Departments" style="rounded=1;whiteSpace=wrap;html=1;" parent="1" vertex="1">
          <mxGeometry x="590" y="160" width="120" height="60" as="geometry" />
        </mxCell>
        <mxCell id="Jw7tVjg1MiCgGyjcP3ik-26" value="" style="endArrow=classic;html=1;rounded=0;exitX=0.25;exitY=0;exitDx=0;exitDy=0;" parent="1" source="Jw7tVjg1MiCgGyjcP3ik-25" target="Jw7tVjg1MiCgGyjcP3ik-27" edge="1">
          <mxGeometry width="50" height="50" relative="1" as="geometry">
            <mxPoint x="780" y="340" as="sourcePoint" />
            <mxPoint x="490" y="80" as="targetPoint" />
          </mxGeometry>
        </mxCell>
        <mxCell id="Jw7tVjg1MiCgGyjcP3ik-27" value="dept_id" style="ellipse;whiteSpace=wrap;html=1;" parent="1" vertex="1">
          <mxGeometry x="490" y="40" width="100" height="40" as="geometry" />
        </mxCell>
        <mxCell id="Jw7tVjg1MiCgGyjcP3ik-28" value="" style="endArrow=classic;html=1;rounded=0;exitX=0.5;exitY=0;exitDx=0;exitDy=0;" parent="1" source="Jw7tVjg1MiCgGyjcP3ik-25" target="Jw7tVjg1MiCgGyjcP3ik-29" edge="1">
          <mxGeometry width="50" height="50" relative="1" as="geometry">
            <mxPoint x="770" y="90" as="sourcePoint" />
            <mxPoint x="650" y="50" as="targetPoint" />
          </mxGeometry>
        </mxCell>
        <mxCell id="Jw7tVjg1MiCgGyjcP3ik-29" value="dept_name" style="ellipse;whiteSpace=wrap;html=1;" parent="1" vertex="1">
          <mxGeometry x="570" width="90" height="50" as="geometry" />
        </mxCell>
        <mxCell id="Jw7tVjg1MiCgGyjcP3ik-30" value="" style="endArrow=classic;html=1;rounded=0;exitX=0.75;exitY=0;exitDx=0;exitDy=0;" parent="1" source="Jw7tVjg1MiCgGyjcP3ik-25" target="Jw7tVjg1MiCgGyjcP3ik-31" edge="1">
          <mxGeometry width="50" height="50" relative="1" as="geometry">
            <mxPoint x="940" y="90" as="sourcePoint" />
            <mxPoint x="820" y="50" as="targetPoint" />
          </mxGeometry>
        </mxCell>
        <mxCell id="Jw7tVjg1MiCgGyjcP3ik-31" value="dept_loc" style="ellipse;whiteSpace=wrap;html=1;" parent="1" vertex="1">
          <mxGeometry x="660" width="100" height="50" as="geometry" />
        </mxCell>
        <mxCell id="Jw7tVjg1MiCgGyjcP3ik-32" value="" style="endArrow=classic;html=1;rounded=0;exitX=0.75;exitY=0;exitDx=0;exitDy=0;" parent="1" source="Jw7tVjg1MiCgGyjcP3ik-25" target="Jw7tVjg1MiCgGyjcP3ik-33" edge="1">
          <mxGeometry width="50" height="50" relative="1" as="geometry">
            <mxPoint x="960" y="190" as="sourcePoint" />
            <mxPoint x="840" y="150" as="targetPoint" />
          </mxGeometry>
        </mxCell>
        <mxCell id="Jw7tVjg1MiCgGyjcP3ik-33" value="dept_manager" style="ellipse;whiteSpace=wrap;html=1;" parent="1" vertex="1">
          <mxGeometry x="700" y="50" width="100" height="50" as="geometry" />
        </mxCell>
        <mxCell id="Jw7tVjg1MiCgGyjcP3ik-36" value="Courses" style="rounded=1;whiteSpace=wrap;html=1;" parent="1" vertex="1">
          <mxGeometry x="530" y="380" width="120" height="60" as="geometry" />
        </mxCell>
        <mxCell id="Jw7tVjg1MiCgGyjcP3ik-37" value="" style="endArrow=classic;html=1;rounded=0;exitX=1;exitY=0.25;exitDx=0;exitDy=0;" parent="1" source="Jw7tVjg1MiCgGyjcP3ik-36" target="Jw7tVjg1MiCgGyjcP3ik-38" edge="1">
          <mxGeometry width="50" height="50" relative="1" as="geometry">
            <mxPoint x="730" y="590" as="sourcePoint" />
            <mxPoint x="440" y="330" as="targetPoint" />
          </mxGeometry>
        </mxCell>
        <mxCell id="Jw7tVjg1MiCgGyjcP3ik-38" value="crs_id" style="ellipse;whiteSpace=wrap;html=1;" parent="1" vertex="1">
          <mxGeometry x="740" y="310" width="100" height="40" as="geometry" />
        </mxCell>
        <mxCell id="Jw7tVjg1MiCgGyjcP3ik-39" value="" style="endArrow=classic;html=1;rounded=0;exitX=1;exitY=0.5;exitDx=0;exitDy=0;" parent="1" source="Jw7tVjg1MiCgGyjcP3ik-36" target="Jw7tVjg1MiCgGyjcP3ik-40" edge="1">
          <mxGeometry width="50" height="50" relative="1" as="geometry">
            <mxPoint x="950" y="310" as="sourcePoint" />
            <mxPoint x="830" y="270" as="targetPoint" />
          </mxGeometry>
        </mxCell>
        <mxCell id="Jw7tVjg1MiCgGyjcP3ik-40" value="crs_name" style="ellipse;whiteSpace=wrap;html=1;" parent="1" vertex="1">
          <mxGeometry x="790" y="350" width="90" height="50" as="geometry" />
        </mxCell>
        <mxCell id="Jw7tVjg1MiCgGyjcP3ik-43" value="" style="endArrow=classic;html=1;rounded=0;exitX=1;exitY=0.75;exitDx=0;exitDy=0;" parent="1" source="Jw7tVjg1MiCgGyjcP3ik-36" target="Jw7tVjg1MiCgGyjcP3ik-44" edge="1">
          <mxGeometry width="50" height="50" relative="1" as="geometry">
            <mxPoint x="910" y="440" as="sourcePoint" />
            <mxPoint x="790" y="400" as="targetPoint" />
          </mxGeometry>
        </mxCell>
        <mxCell id="Jw7tVjg1MiCgGyjcP3ik-44" value="duration" style="ellipse;whiteSpace=wrap;html=1;" parent="1" vertex="1">
          <mxGeometry x="720" y="400" width="100" height="50" as="geometry" />
        </mxCell>
        <mxCell id="Jw7tVjg1MiCgGyjcP3ik-80" value="&lt;h1&gt;MAPPING:&lt;/h1&gt;&lt;p&gt;&lt;font style=&quot;font-size: 14px;&quot;&gt;1-Students (st_id, st_fname, st_lname, dob, address, year_level, dept_id)&lt;/font&gt;&lt;/p&gt;&lt;p&gt;&lt;font size=&quot;3&quot;&gt;2-Departments (dept_id, dept_name, dept_loc, dept_manager)&lt;/font&gt;&lt;/p&gt;&lt;p&gt;&lt;font size=&quot;3&quot;&gt;3-Courses (crs_id, crs_name, credits)&lt;/font&gt;&lt;/p&gt;&lt;p&gt;&lt;font size=&quot;3&quot;&gt;4-Grades(g_id, st_id, crs_id, grade, feedback, crs_year)&lt;/font&gt;&lt;/p&gt;" style="text;html=1;strokeColor=none;fillColor=none;spacing=5;spacingTop=-20;whiteSpace=wrap;overflow=hidden;rounded=0;" parent="1" vertex="1">
          <mxGeometry x="-300" y="210" width="500" height="200" as="geometry" />
        </mxCell>
        <mxCell id="Jw7tVjg1MiCgGyjcP3ik-82" value="IN" style="rhombus;whiteSpace=wrap;html=1;" parent="1" vertex="1">
          <mxGeometry x="430" y="160" width="70" height="50" as="geometry" />
        </mxCell>
        <mxCell id="Jw7tVjg1MiCgGyjcP3ik-83" value="" style="endArrow=none;html=1;rounded=0;exitX=1;exitY=0.5;exitDx=0;exitDy=0;entryX=0;entryY=0.5;entryDx=0;entryDy=0;shape=link;" parent="1" source="Jw7tVjg1MiCgGyjcP3ik-1" target="Jw7tVjg1MiCgGyjcP3ik-82" edge="1">
          <mxGeometry width="50" height="50" relative="1" as="geometry">
            <mxPoint x="570" y="440" as="sourcePoint" />
            <mxPoint x="620" y="390" as="targetPoint" />
          </mxGeometry>
        </mxCell>
        <mxCell id="Jw7tVjg1MiCgGyjcP3ik-87" value="m" style="edgeLabel;html=1;align=center;verticalAlign=middle;resizable=0;points=[];" parent="Jw7tVjg1MiCgGyjcP3ik-83" vertex="1" connectable="0">
          <mxGeometry x="-0.029" y="2" relative="1" as="geometry">
            <mxPoint x="1" as="offset" />
          </mxGeometry>
        </mxCell>
        <mxCell id="Jw7tVjg1MiCgGyjcP3ik-84" value="" style="endArrow=none;html=1;rounded=0;exitX=1;exitY=0.5;exitDx=0;exitDy=0;entryX=0;entryY=0.5;entryDx=0;entryDy=0;" parent="1" source="Jw7tVjg1MiCgGyjcP3ik-82" target="Jw7tVjg1MiCgGyjcP3ik-25" edge="1">
          <mxGeometry width="50" height="50" relative="1" as="geometry">
            <mxPoint x="570" y="440" as="sourcePoint" />
            <mxPoint x="620" y="390" as="targetPoint" />
          </mxGeometry>
        </mxCell>
        <mxCell id="Jw7tVjg1MiCgGyjcP3ik-86" value="1" style="edgeLabel;html=1;align=center;verticalAlign=middle;resizable=0;points=[];" parent="Jw7tVjg1MiCgGyjcP3ik-84" vertex="1" connectable="0">
          <mxGeometry x="-0.0996" y="5" relative="1" as="geometry">
            <mxPoint x="-1" as="offset" />
          </mxGeometry>
        </mxCell>
        <mxCell id="Jw7tVjg1MiCgGyjcP3ik-104" value="BELONG" style="rhombus;whiteSpace=wrap;html=1;rotation=15;" parent="1" vertex="1">
          <mxGeometry x="560" y="270" width="70" height="50" as="geometry" />
        </mxCell>
        <mxCell id="Jw7tVjg1MiCgGyjcP3ik-109" value="" style="endArrow=none;html=1;rounded=0;exitX=0.25;exitY=0;exitDx=0;exitDy=0;shape=link;entryX=0.5;entryY=1;entryDx=0;entryDy=0;" parent="1" source="Jw7tVjg1MiCgGyjcP3ik-36" target="Jw7tVjg1MiCgGyjcP3ik-104" edge="1">
          <mxGeometry width="50" height="50" relative="1" as="geometry">
            <mxPoint x="640" y="262.5" as="sourcePoint" />
            <mxPoint x="760" y="310" as="targetPoint" />
          </mxGeometry>
        </mxCell>
        <mxCell id="Jw7tVjg1MiCgGyjcP3ik-110" value="m" style="edgeLabel;html=1;align=center;verticalAlign=middle;resizable=0;points=[];" parent="Jw7tVjg1MiCgGyjcP3ik-109" vertex="1" connectable="0">
          <mxGeometry x="-0.029" y="2" relative="1" as="geometry">
            <mxPoint x="1" as="offset" />
          </mxGeometry>
        </mxCell>
        <mxCell id="Jw7tVjg1MiCgGyjcP3ik-111" value="" style="endArrow=none;html=1;rounded=0;exitX=0.75;exitY=1;exitDx=0;exitDy=0;entryX=0.5;entryY=0;entryDx=0;entryDy=0;" parent="1" source="Jw7tVjg1MiCgGyjcP3ik-25" target="Jw7tVjg1MiCgGyjcP3ik-104" edge="1">
          <mxGeometry width="50" height="50" relative="1" as="geometry">
            <mxPoint x="660" y="405" as="sourcePoint" />
            <mxPoint x="770" y="390" as="targetPoint" />
          </mxGeometry>
        </mxCell>
        <mxCell id="Jw7tVjg1MiCgGyjcP3ik-112" value="1" style="edgeLabel;html=1;align=center;verticalAlign=middle;resizable=0;points=[];" parent="Jw7tVjg1MiCgGyjcP3ik-111" vertex="1" connectable="0">
          <mxGeometry x="-0.0996" y="5" relative="1" as="geometry">
            <mxPoint x="-1" as="offset" />
          </mxGeometry>
        </mxCell>
        <mxCell id="Jw7tVjg1MiCgGyjcP3ik-113" value="STUDY" style="rhombus;whiteSpace=wrap;html=1;rotation=-30;" parent="1" vertex="1">
          <mxGeometry x="340" y="250" width="70" height="50" as="geometry" />
        </mxCell>
        <mxCell id="Jw7tVjg1MiCgGyjcP3ik-114" value="" style="endArrow=none;html=1;rounded=0;exitX=0;exitY=0.5;exitDx=0;exitDy=0;shape=link;entryX=0.5;entryY=1;entryDx=0;entryDy=0;" parent="1" source="Jw7tVjg1MiCgGyjcP3ik-36" target="Jw7tVjg1MiCgGyjcP3ik-113" edge="1">
          <mxGeometry width="50" height="50" relative="1" as="geometry">
            <mxPoint x="570" y="390" as="sourcePoint" />
            <mxPoint x="770" y="320" as="targetPoint" />
          </mxGeometry>
        </mxCell>
        <mxCell id="Jw7tVjg1MiCgGyjcP3ik-115" value="m" style="edgeLabel;html=1;align=center;verticalAlign=middle;resizable=0;points=[];" parent="Jw7tVjg1MiCgGyjcP3ik-114" vertex="1" connectable="0">
          <mxGeometry x="-0.029" y="2" relative="1" as="geometry">
            <mxPoint x="1" as="offset" />
          </mxGeometry>
        </mxCell>
        <mxCell id="Jw7tVjg1MiCgGyjcP3ik-119" value="" style="endArrow=none;html=1;rounded=0;exitX=0.5;exitY=0;exitDx=0;exitDy=0;shape=link;entryX=0.5;entryY=1;entryDx=0;entryDy=0;" parent="1" source="Jw7tVjg1MiCgGyjcP3ik-113" target="Jw7tVjg1MiCgGyjcP3ik-1" edge="1">
          <mxGeometry width="50" height="50" relative="1" as="geometry">
            <mxPoint x="540" y="420" as="sourcePoint" />
            <mxPoint x="398" y="307" as="targetPoint" />
          </mxGeometry>
        </mxCell>
        <mxCell id="Jw7tVjg1MiCgGyjcP3ik-120" value="m" style="edgeLabel;html=1;align=center;verticalAlign=middle;resizable=0;points=[];" parent="Jw7tVjg1MiCgGyjcP3ik-119" vertex="1" connectable="0">
          <mxGeometry x="-0.029" y="2" relative="1" as="geometry">
            <mxPoint x="1" as="offset" />
          </mxGeometry>
        </mxCell>
        <mxCell id="Jw7tVjg1MiCgGyjcP3ik-124" value="" style="endArrow=classic;html=1;rounded=0;exitX=0;exitY=0.5;exitDx=0;exitDy=0;" parent="1" source="Jw7tVjg1MiCgGyjcP3ik-113" target="Jw7tVjg1MiCgGyjcP3ik-125" edge="1">
          <mxGeometry width="50" height="50" relative="1" as="geometry">
            <mxPoint x="330" y="335" as="sourcePoint" />
            <mxPoint x="210" y="295" as="targetPoint" />
          </mxGeometry>
        </mxCell>
        <mxCell id="Jw7tVjg1MiCgGyjcP3ik-125" value="duration" style="ellipse;whiteSpace=wrap;html=1;" parent="1" vertex="1">
          <mxGeometry x="210" y="255" width="100" height="40" as="geometry" />
        </mxCell>
        <mxCell id="Jw7tVjg1MiCgGyjcP3ik-126" value="" style="endArrow=classic;html=1;rounded=0;exitX=0;exitY=0.5;exitDx=0;exitDy=0;" parent="1" source="Jw7tVjg1MiCgGyjcP3ik-113" target="Jw7tVjg1MiCgGyjcP3ik-127" edge="1">
          <mxGeometry width="50" height="50" relative="1" as="geometry">
            <mxPoint x="340" y="380" as="sourcePoint" />
            <mxPoint x="220" y="340" as="targetPoint" />
          </mxGeometry>
        </mxCell>
        <mxCell id="Jw7tVjg1MiCgGyjcP3ik-127" value="feedback" style="ellipse;whiteSpace=wrap;html=1;" parent="1" vertex="1">
          <mxGeometry x="220" y="300" width="100" height="40" as="geometry" />
        </mxCell>
        <mxCell id="3TEkLoQ4po83Ln8rDQLP-1" value="" style="endArrow=classic;html=1;rounded=0;exitX=0;exitY=0.5;exitDx=0;exitDy=0;" parent="1" source="Jw7tVjg1MiCgGyjcP3ik-1" target="3TEkLoQ4po83Ln8rDQLP-2" edge="1">
          <mxGeometry width="50" height="50" relative="1" as="geometry">
            <mxPoint x="190" y="170" as="sourcePoint" />
            <mxPoint x="70" y="130" as="targetPoint" />
          </mxGeometry>
        </mxCell>
        <mxCell id="3TEkLoQ4po83Ln8rDQLP-2" value="year_level" style="ellipse;whiteSpace=wrap;html=1;" parent="1" vertex="1">
          <mxGeometry x="70" y="90" width="100" height="40" as="geometry" />
        </mxCell>
        <mxCell id="3TEkLoQ4po83Ln8rDQLP-3" value="" style="endArrow=classic;html=1;rounded=0;exitX=0;exitY=0.5;exitDx=0;exitDy=0;" parent="1" source="Jw7tVjg1MiCgGyjcP3ik-113" target="3TEkLoQ4po83Ln8rDQLP-4" edge="1">
          <mxGeometry width="50" height="50" relative="1" as="geometry">
            <mxPoint x="240" y="450" as="sourcePoint" />
            <mxPoint x="270" y="390" as="targetPoint" />
          </mxGeometry>
        </mxCell>
        <mxCell id="3TEkLoQ4po83Ln8rDQLP-4" value="crs_year" style="ellipse;whiteSpace=wrap;html=1;" parent="1" vertex="1">
          <mxGeometry x="270" y="350" width="100" height="40" as="geometry" />
        </mxCell>
      </root>
    </mxGraphModel>
  </diagram>
</mxfile>
